<svg width="305" height="274" viewBox="0 0 305 274" fill="none" xmlns="http://www.w3.org/2000/svg">
  <g clip-path="url(#clip0)">
    <path d="M221.432 155.484V231.175L234.702 251.808L235.712 253.377H288.075L289.133 155.484H221.432Z" fill="#E6E6E6"/>
    <path opacity="0.1" d="M221.432 155.484V231.175L234.702 251.808L235.517 155.484H221.432Z" fill="black"/>
    <path d="M95.0208 153.465V229.156L81.7501 249.79L80.7402 251.359H28.3777L27.3197 153.465H95.0208Z" fill="#E6E6E6"/>
    <path opacity="0.1" d="M95.0208 153.465V229.156L81.7501 249.79L80.9357 153.465H95.0208Z" fill="black"/>
    <path d="M305 151.952V156.493H20.4438V149.933L46.8894 136.813H281.728L305 151.952Z" fill="#E6E6E6"/>
    <path opacity="0.1" d="M305 151.952V156.493H20.4438V149.933L305 151.952Z" fill="black"/>
    <path d="M61.1704 174.659H48.4762L43.187 171.127H66.9883L61.1704 174.659Z" fill="#3F3D56"/>
    <path d="M61.1704 189.292H48.4762L43.187 185.76H66.9883L61.1704 189.292Z" fill="#3F3D56"/>
    <path d="M61.1704 209.981H48.4762L43.187 206.449H66.9883L61.1704 209.981Z" fill="#3F3D56"/>
    <path d="M61.1704 230.67H48.4762L43.187 227.138H66.9883L61.1704 230.67Z" fill="#3F3D56"/>
    <path d="M255.282 176.677H267.976L273.265 173.145H249.464L255.282 176.677Z" fill="#3F3D56"/>
    <path d="M255.282 191.311H267.976L273.265 187.779H249.464L255.282 191.311Z" fill="#3F3D56"/>
    <path d="M255.282 212H267.976L273.265 208.468H249.464L255.282 212Z" fill="#3F3D56"/>
    <path d="M255.282 232.688H267.976L273.265 229.156H249.464L255.282 232.688Z" fill="#3F3D56"/>
    <path d="M263.926 49.2846H157.061C156.53 49.2845 156.004 49.3842 155.514 49.5779C155.024 49.7717 154.578 50.0557 154.203 50.4137C153.827 50.7718 153.53 51.1969 153.327 51.6647C153.124 52.1326 153.019 52.634 153.019 53.1403V121.819C153.019 122.326 153.124 122.827 153.327 123.295C153.53 123.763 153.827 124.188 154.203 124.546C154.578 124.904 155.024 125.188 155.514 125.382C156.004 125.575 156.53 125.675 157.061 125.675H197.628L196.108 134.932C196.108 134.932 187.422 139.335 193.529 139.464C199.637 139.594 228.408 139.464 228.408 139.464C228.408 139.464 233.972 139.464 225.151 134.803L223.721 125.675H263.926C264.457 125.675 264.983 125.575 265.473 125.382C265.963 125.188 266.409 124.904 266.784 124.546C267.16 124.188 267.457 123.763 267.66 123.295C267.863 122.827 267.968 122.326 267.968 121.819V53.1403C267.968 52.634 267.863 52.1326 267.66 51.6647C267.457 51.1969 267.16 50.7718 266.784 50.4137C266.409 50.0557 265.963 49.7717 265.473 49.5779C264.983 49.3842 264.457 49.2845 263.926 49.2846Z" fill="#3F3D56"/>
    <path d="M264.1 53.363H156.887V110.591H264.1V53.363Z" fill="#F2F2F2"/>
    <path d="M210.494 52.1978C210.868 52.1978 211.172 51.9079 211.172 51.5504C211.172 51.1929 210.868 50.903 210.494 50.903C210.119 50.903 209.815 51.1929 209.815 51.5504C209.815 51.9079 210.119 52.1978 210.494 52.1978Z" fill="#F2F2F2"/>
    <path d="M210.494 122.891C211.918 122.891 213.072 121.79 213.072 120.431C213.072 119.073 211.918 117.971 210.494 117.971C209.069 117.971 207.915 119.073 207.915 120.431C207.915 121.79 209.069 122.891 210.494 122.891Z" fill="#F2F2F2"/>
    <path d="M206.475 146.456V147.751H133.462V146.715L133.562 146.456L135.362 141.795H204.983L206.475 146.456Z" fill="#3F3D56"/>
    <path d="M234.573 145.188C234.44 145.731 233.938 146.303 232.804 146.844C228.732 148.786 220.454 146.326 220.454 146.326C220.454 146.326 214.075 145.29 214.075 142.571C214.254 142.454 214.441 142.349 214.634 142.254C216.346 141.39 222.022 139.258 232.085 142.345C232.826 142.567 233.489 142.981 233.998 143.54C234.223 143.752 234.393 144.012 234.493 144.298C234.593 144.585 234.621 144.89 234.573 145.188Z" fill="#3F3D56"/>
    <path opacity="0.1" d="M234.573 145.188C229.59 147.01 225.148 147.146 220.589 144.125C218.866 142.909 216.778 142.253 214.634 142.254C216.346 141.39 222.022 139.258 232.085 142.345C232.826 142.567 233.489 142.981 233.998 143.54C234.223 143.752 234.393 144.012 234.493 144.298C234.593 144.585 234.621 144.89 234.573 145.188Z" fill="black"/>
    <path d="M228.325 144.125C229.299 144.125 230.089 143.893 230.089 143.607C230.089 143.321 229.299 143.089 228.325 143.089C227.351 143.089 226.561 143.321 226.561 143.607C226.561 143.893 227.351 144.125 228.325 144.125Z" fill="#F2F2F2"/>
    <path opacity="0.1" d="M206.475 146.456V147.751H133.462V146.715L133.562 146.456H206.475Z" fill="black"/>
    <path d="M40.5965 0.000219076C39.8555 -0.0578244 39.1135 0.100314 38.4688 0.453679C37.8358 0.867246 37.4368 1.59177 37.0296 2.26599C35.4726 4.87457 33.3646 7.14621 30.8393 8.93702C29 10.2226 26.6615 11.8255 26.9762 14.1957C27.1422 14.9784 27.4453 15.7289 27.8728 16.4155C29.5696 19.6834 34.2 22.2088 33.7445 25.9377C35.4304 23.2451 33.1754 21.9137 34.8613 19.2212C35.6641 17.9389 37.0588 16.4914 38.2709 17.2967C38.6768 17.5663 38.9433 18.0499 39.3659 18.2865C40.3742 18.851 41.447 17.7718 42.3395 17.0074C45.4174 14.3714 49.7944 15.0619 53.6245 15.8833C55.4327 16.271 57.4188 16.7797 58.4876 18.4285C59.893 20.5962 57.1524 22.9374 56.46 25.3883C56.4034 25.5971 56.4008 25.8159 56.4522 26.0259C56.5036 26.236 56.6076 26.431 56.7552 26.5944C56.9029 26.7577 57.0898 26.8845 57.3 26.9639C57.5102 27.0433 57.7374 27.0729 57.9622 27.0503C59.1115 26.9422 60.4729 26.8535 60.5409 26.3724C61.9868 26.4215 63.7585 26.2652 64.378 24.8289C64.5674 24.2605 64.6674 23.6686 64.675 23.0723C64.9024 20.6595 65.9758 18.4582 66.6869 16.1618C67.398 13.8654 67.7072 11.1741 66.5071 9.13802C66.0789 8.46059 65.5492 7.84645 64.9349 7.31503C58.1251 1.02774 49.1716 -0.00911361 40.5965 0.000219076Z" fill="black"/>
    <path d="M35.2256 30.6474C35.2256 30.6474 36.7066 42.422 31.2762 43.364C25.8457 44.306 36.2129 60.3195 36.2129 60.3195L60.8967 63.1454L54.9726 44.306C54.9726 44.306 51.0232 42.893 53.4916 33.4733C55.96 24.0536 35.2256 30.6474 35.2256 30.6474Z" fill="#F6BFA7"/>
    <path d="M20.1684 232.936L22.1433 258.84H32.5102L29.5485 232.936H20.1684Z" fill="#F6BFA7"/>
    <path d="M96.1946 183.953L97.6754 205.619L109.03 200.909L104.587 183.012L96.1946 183.953Z" fill="#F6BFA7"/>
    <path d="M12.7633 134.029C12.7633 134.029 13.257 161.346 16.2191 170.295C19.1811 179.244 18.6874 179.715 18.1938 181.127C17.7001 182.54 17.2064 181.598 17.2064 183.953C17.2064 186.308 16.2191 223.516 17.2064 226.813C18.1938 230.11 14.2444 235.762 17.2064 236.233C20.1685 236.704 33.9914 236.233 34.4851 233.407C34.9787 230.581 30.5357 229.639 32.5104 227.755C34.4851 225.871 37.4471 187.25 37.4471 187.25L44.3586 160.404L57.1942 146.275H84.3463L92.7388 177.36C92.7388 177.36 89.2831 186.308 91.7515 186.308C94.2199 186.308 109.03 189.134 109.03 178.773C109.03 168.411 104.093 137.797 103.106 136.855C102.119 135.913 103.6 132.616 102.119 131.203C100.638 129.79 83.359 119.899 76.9412 118.015C70.5234 116.131 61.5204 113.889 61.5204 113.889L12.7633 134.029Z" fill="black"/>
    <path d="M109.03 197.141C109.03 197.141 101.625 194.786 98.1693 201.851C94.7135 208.916 96.1946 210.8 96.1946 210.8C96.1946 210.8 107.549 214.568 109.524 212.684C110.383 211.864 113.111 211.579 115.919 211.519C120.196 211.427 121.334 205.655 117.295 204.31C117.174 204.27 117.052 204.235 116.929 204.206C112.98 203.264 109.03 197.141 109.03 197.141Z" fill="#2F2E41"/>
    <path d="M46.3333 38.4187C54.5128 38.4187 61.1436 32.0926 61.1436 24.2891C61.1436 16.4855 54.5128 10.1595 46.3333 10.1595C38.1538 10.1595 31.523 16.4855 31.523 24.2891C31.523 32.0926 38.1538 38.4187 46.3333 38.4187Z" fill="#F7BFA7"/>
    <path d="M27.0799 49.2513C27.0799 49.2513 51.2701 53.9612 57.1942 46.4254C63.1183 38.8896 65.5867 67.6198 65.5867 67.6198L68.5487 97.7629L64.1056 114.247C64.1056 114.247 40.9028 132.145 33.4977 133.558C26.0926 134.971 14.738 135.913 14.738 135.913C14.738 135.913 18.1938 83.6333 18.1938 82.6914C18.1938 81.7494 27.0799 49.2513 27.0799 49.2513Z" fill="#00BE7A"/>
    <path d="M34.4367 40.4182C34.4367 40.4182 29.0546 37.4767 27.5736 40.3026C26.0926 43.1285 12.2696 50.1933 10.7886 50.1933C9.30756 50.1933 13.7507 89.2852 11.7759 93.995C9.80124 98.7049 0.421397 133.087 5.85184 135.913C11.2823 138.739 7.33286 133.087 12.7633 140.152C18.1937 147.216 44.8523 147.216 46.3333 144.391C47.8143 141.565 34.4851 120.37 36.9534 100.589C39.4218 80.8074 43.3712 53.4902 39.9155 49.7223C36.4598 45.9544 34.4367 40.4182 34.4367 40.4182Z" fill="#0E0E15"/>
    <path d="M52.2574 43.5995L52.9451 41.3418C52.9451 41.3418 73.4855 47.8384 74.4729 52.0773C75.4602 56.3161 74.9665 85.9883 71.5108 88.3432C68.0551 90.6981 63.1183 94.466 66.574 100.118C70.0298 105.77 73.9792 111.893 76.9412 112.363C79.9033 112.834 85.3337 116.131 83.8527 119.428C82.3717 122.725 64.5993 116.602 64.5993 116.602C64.5993 116.602 52.7511 108.125 53.2448 94.937C53.7384 81.7494 52.2574 43.5995 52.2574 43.5995Z" fill="#0E0E15"/>
    <path d="M69.5361 99.1759L57.6878 120.37C57.6878 120.37 40.4092 137.326 50.2827 139.21C60.1563 141.094 65.5867 123.667 65.5867 123.667L78.4223 106.241L69.5361 99.1759Z" fill="#F6BFA7"/>
    <path d="M41.318 3.69703C40.721 3.65483 40.1231 3.76548 39.586 4.01753C39.1003 4.35593 38.7 4.79356 38.4144 5.29846C37.0976 7.18814 35.3812 8.7942 33.3752 10.0135C31.8779 10.9221 29.9743 12.055 30.2305 13.7303C30.3696 14.292 30.6171 14.824 30.9603 15.2992C32.3464 17.6323 32.8982 20.3326 32.5322 22.9915L36.6493 17.2823C37.3028 16.376 38.4382 15.3529 39.4249 15.9221C39.7553 16.1127 39.9722 16.4545 40.3162 16.6217C41.1371 17.0207 42.0103 16.2579 42.7369 15.7176C45.2424 13.8545 48.8055 14.3426 51.9234 14.9231C53.3953 15.1971 55.012 15.5567 55.8822 16.722C57.3281 18.6585 55.8183 21.4567 56.6622 23.6939C56.8984 23.5361 57.099 23.3347 57.2521 23.1015C57.4053 22.8684 57.5078 22.6083 57.5536 22.3367C58.7306 22.3714 60.1728 22.261 60.6772 21.2457C60.8305 20.8479 60.9123 20.4281 60.9189 20.0042C61.104 18.2988 61.9778 16.743 62.5567 15.1199C63.1355 13.4968 63.3872 11.5946 62.4104 10.1556C62.053 9.66796 61.6217 9.23373 61.1305 8.86708C55.587 4.42327 48.2985 3.69044 41.318 3.69703Z" fill="black"/>
    <path d="M69.536 50.1933L74.1357 51.3581C74.1357 51.3581 84.84 77.5105 82.3716 95.408C79.9033 113.305 78.4222 109.538 78.4222 109.538C78.4222 109.538 74.4728 101.06 65.5866 102.944L69.536 50.1933Z" fill="#0E0E15"/>
    <path d="M20.8524 255.417C19.6619 256.96 19.9006 259.166 18.8461 260.797C17.932 262.211 16.2093 262.952 15.0659 264.205C14.7011 264.621 14.3759 265.068 14.0941 265.539C13.0335 267.234 12.1714 269.406 13.216 271.11C14.0562 272.481 15.8225 273.016 17.4424 273.382C19.4898 273.843 21.617 274.212 23.6881 273.86C25.7591 273.507 27.7832 272.297 28.5216 270.418C28.6668 269.945 28.8393 269.481 29.0384 269.026C30.161 266.918 33.6819 266.895 34.8307 264.8C35.6347 263.334 34.8957 261.561 34.1569 260.064L31.9006 255.491C31.1519 253.973 28.1165 254.846 26.5342 254.482C24.4704 254.008 22.3371 253.485 20.8524 255.417Z" fill="#2F2E41"/>
    <path d="M4.37082 108.596L25.1052 139.21C25.1052 139.21 37.9408 154.752 41.8902 147.687C45.8396 140.623 28.0673 128.848 28.0673 128.848L14.738 105.299L4.37082 108.596Z" fill="#F6BFA7"/>
    <path d="M14.738 51.1353L10.7886 50.1933C10.7886 50.1933 2.88977 52.5482 0.915069 62.4389C-1.05963 72.3297 0.421391 111.893 2.88977 112.363C5.35815 112.834 15.0811 105.475 16.6374 107.035C18.1937 108.596 13.257 100.589 14.738 96.35C16.219 92.1111 14.738 51.1353 14.738 51.1353Z" fill="#0E0E15"/>
    <path d="M200.346 72.1586H187.586V75.0892H200.346V72.1586Z" fill="#00BE7A"/>
    <path d="M244.532 72.1586H240.042V75.0892H244.532V72.1586Z" fill="#00BE7A"/>
    <path d="M253.511 72.1586H249.021V75.0892H253.511V72.1586Z" fill="#00BE7A"/>
    <path d="M235.317 72.1586H204.835V75.0892H235.317V72.1586Z" fill="#00BE7A"/>
    <path d="M184.278 91.0947H171.519V94.0252H184.278V91.0947Z" fill="#00BE7A"/>
    <path d="M228.464 91.0947H223.975V94.0252H228.464V91.0947Z" fill="#00BE7A"/>
    <path d="M237.443 91.0947H232.954V94.0252H237.443V91.0947Z" fill="#00BE7A"/>
    <path d="M219.249 91.0947H188.768V94.0252H219.249V91.0947Z" fill="#00BE7A"/>
    <path d="M236.971 78.6961H224.211V81.6267H236.971V78.6961Z" fill="#00BE7A"/>
    <path d="M254.22 78.6961H241.46V81.6267H254.22V78.6961Z" fill="#00BE7A"/>
    <path d="M176.008 78.6961H171.519V81.6267H176.008V78.6961Z" fill="#00BE7A"/>
    <path d="M184.987 78.6961H180.498V81.6267H184.987V78.6961Z" fill="#00BE7A"/>
    <path d="M219.958 78.6961H189.477V81.6267H219.958V78.6961Z" fill="#00BE7A"/>
    <path d="M210.506 85.0081H197.747V87.9387H210.506V85.0081Z" fill="#00BE7A"/>
    <path d="M193.257 85.0081H180.498V87.9387H193.257V85.0081Z" fill="#00BE7A"/>
    <path d="M176.008 85.0081H171.519V87.9387H176.008V85.0081Z" fill="#00BE7A"/>
    <path d="M254.22 85.0081H249.73V87.9387H254.22V85.0081Z" fill="#00BE7A"/>
    <path d="M245.241 85.0081H214.76V87.9387H245.241V85.0081Z" fill="#00BE7A"/>
  </g>
  <defs>
    <clipPath id="clip0">
      <rect width="305" height="274" fill="white"/>
    </clipPath>
  </defs>
</svg>
