<svg width="31" height="44" viewBox="0 0 31 44" fill="none" xmlns="http://www.w3.org/2000/svg">
  <g clip-path="url(#clip0)">
    <path d="M21.3759 22L30.1889 13.4002C31.2704 12.3449 31.2704 10.6339 30.1889 9.57773L28.2303 7.66648C27.1488 6.61117 25.3953 6.61117 24.313 7.66648L15.5 16.2662L6.68702 7.66648C5.60554 6.61117 3.8521 6.61117 2.76974 7.66648L0.811108 9.57773C-0.270369 10.633 -0.270369 12.3441 0.811108 13.4002L9.62409 22L0.811108 30.5998C-0.270369 31.6551 -0.270369 33.3661 0.811108 34.4223L2.76974 36.3335C3.85122 37.3888 5.60554 37.3888 6.68702 36.3335L15.5 27.7338L24.313 36.3335C25.3945 37.3888 27.1488 37.3888 28.2303 36.3335L30.1889 34.4223C31.2704 33.367 31.2704 31.6559 30.1889 30.5998L21.3759 22Z" fill="#00BE7A"/>
  </g>
  <defs>
    <clipPath id="clip0">
      <rect width="31" height="44" fill="white"/>
    </clipPath>
  </defs>
</svg>
