<svg width="16" height="16" viewBox="0 0 16 16" fill="none" xmlns="http://www.w3.org/2000/svg">
  <path fill-rule="evenodd" clip-rule="evenodd" d="M11 1.00001C10.5607 0.998846 10.1332 1.1429 9.78421 1.40976C9.43519 1.67661 9.18412 2.05132 9.07007 2.47562C8.95601 2.89991 8.98535 3.34999 9.15353 3.75588C9.32171 4.16178 9.61929 4.50072 10 4.72001V6.00001L8.00001 8.00001L6.00001 6.00001V4.72001C6.38072 4.50072 6.67831 4.16178 6.84648 3.75588C7.01466 3.34999 7.044 2.89991 6.92994 2.47562C6.81589 2.05132 6.56483 1.67661 6.2158 1.40976C5.86678 1.1429 5.43936 0.998846 5.00001 1.00001C4.56065 0.998846 4.13323 1.1429 3.78421 1.40976C3.43519 1.67661 3.18412 2.05132 3.07007 2.47562C2.95601 2.89991 2.98535 3.34999 3.15353 3.75588C3.32171 4.16178 3.61929 4.50072 4.00001 4.72001V6.50001L7.00001 9.50001V11.28C6.61929 11.4993 6.32171 11.8382 6.15353 12.2441C5.98535 12.65 5.95601 13.1001 6.07007 13.5244C6.18412 13.9487 6.43519 14.3234 6.78421 14.5903C7.13323 14.8571 7.56065 15.0012 8.00001 15C8.43936 15.0012 8.86678 14.8571 9.2158 14.5903C9.56483 14.3234 9.81589 13.9487 9.92994 13.5244C10.044 13.1001 10.0147 12.65 9.84648 12.2441C9.67831 11.8382 9.38072 11.4993 9.00001 11.28V9.50001L12 6.50001V4.72001C12.3807 4.50072 12.6783 4.16178 12.8465 3.75588C13.0147 3.34999 13.044 2.89991 12.9299 2.47562C12.8159 2.05132 12.5648 1.67661 12.2158 1.40976C11.8668 1.1429 11.4394 0.998846 11 1.00001V1.00001ZM5.00001 4.20001C4.34001 4.20001 3.80001 3.65001 3.80001 3.00001C3.80001 2.35001 4.35001 1.80001 5.00001 1.80001C5.65001 1.80001 6.20001 2.35001 6.20001 3.00001C6.20001 3.65001 5.65001 4.20001 5.00001 4.20001ZM8.00001 14.2C7.34001 14.2 6.80001 13.65 6.80001 13C6.80001 12.35 7.35001 11.8 8.00001 11.8C8.65001 11.8 9.20001 12.35 9.20001 13C9.20001 13.65 8.65001 14.2 8.00001 14.2ZM11 4.20001C10.34 4.20001 9.80001 3.65001 9.80001 3.00001C9.80001 2.35001 10.35 1.80001 11 1.80001C11.65 1.80001 12.2 2.35001 12.2 3.00001C12.2 3.65001 11.65 4.20001 11 4.20001V4.20001Z" fill="#00BE7A"/>
</svg>
