<svg width="44" height="42" viewBox="0 0 44 42" fill="none" xmlns="http://www.w3.org/2000/svg">
  <path d="M14.9445 32.5992C14.9445 32.7633 14.7469 32.8945 14.4977 32.8945C14.2141 32.9191 14.0164 32.7879 14.0164 32.5992C14.0164 32.4352 14.2141 32.3039 14.4633 32.3039C14.7211 32.2793 14.9445 32.4105 14.9445 32.5992ZM12.2719 32.2301C12.2117 32.3941 12.3836 32.5828 12.6414 32.632C12.8648 32.7141 13.1227 32.632 13.1742 32.468C13.2258 32.3039 13.0625 32.1152 12.8047 32.0414C12.5813 31.984 12.332 32.066 12.2719 32.2301ZM16.0703 32.0906C15.8211 32.148 15.6492 32.3039 15.675 32.4926C15.7008 32.6566 15.9242 32.7633 16.182 32.7059C16.4313 32.6484 16.6031 32.4926 16.5773 32.3285C16.5516 32.1727 16.3195 32.066 16.0703 32.0906ZM21.725 0.65625C9.80547 0.65625 0.6875 9.29414 0.6875 20.6719C0.6875 29.7691 6.68594 37.5539 15.2539 40.2938C16.3539 40.4824 16.7406 39.8344 16.7406 39.3012C16.7406 38.7926 16.7148 35.9871 16.7148 34.2645C16.7148 34.2645 10.6992 35.4949 9.43594 31.8199C9.43594 31.8199 8.45625 29.4328 7.04688 28.8176C7.04688 28.8176 5.07891 27.5297 7.18437 27.5543C7.18437 27.5543 9.32422 27.7184 10.5016 29.6707C12.3836 32.8371 15.5375 31.9266 16.7664 31.3852C16.9641 30.0727 17.5227 29.1621 18.1414 28.6207C13.3375 28.1121 8.49063 27.4477 8.49063 19.5562C8.49063 17.3004 9.14375 16.1684 10.5188 14.7246C10.2953 14.1914 9.56484 11.993 10.7422 9.15469C12.5383 8.62148 16.6719 11.3695 16.6719 11.3695C18.3906 10.9102 20.2383 10.6723 22.0688 10.6723C23.8992 10.6723 25.7469 10.9102 27.4656 11.3695C27.4656 11.3695 31.5992 8.61328 33.3953 9.15469C34.5727 12.0012 33.8422 14.1914 33.6188 14.7246C34.9938 16.1766 35.8359 17.3086 35.8359 19.5562C35.8359 27.4723 30.7742 28.1039 25.9703 28.6207C26.7609 29.2687 27.4313 30.4992 27.4313 32.427C27.4313 35.1914 27.4055 38.6121 27.4055 39.2848C27.4055 39.818 27.8008 40.466 28.8922 40.2773C37.4859 37.5539 43.3125 29.7691 43.3125 20.6719C43.3125 9.29414 33.6445 0.65625 21.725 0.65625ZM9.04062 28.9488C8.92891 29.0309 8.95469 29.2195 9.10078 29.3754C9.23828 29.5066 9.43594 29.5641 9.54766 29.4574C9.65938 29.3754 9.63359 29.1867 9.4875 29.0309C9.35 28.8996 9.15234 28.8422 9.04062 28.9488ZM8.1125 28.2844C8.05234 28.391 8.13828 28.5223 8.31016 28.6043C8.44766 28.6863 8.61953 28.6617 8.67969 28.5469C8.73984 28.4402 8.65391 28.309 8.48203 28.227C8.31016 28.1777 8.17266 28.2023 8.1125 28.2844ZM10.8969 31.2047C10.7594 31.3113 10.8109 31.5574 11.0086 31.7133C11.2063 31.902 11.4555 31.9266 11.5672 31.7953C11.6789 31.6887 11.6273 31.4426 11.4555 31.2867C11.2664 31.098 11.0086 31.0734 10.8969 31.2047ZM9.91719 29.9988C9.77969 30.0809 9.77969 30.2941 9.91719 30.4828C10.0547 30.6715 10.2867 30.7535 10.3984 30.6715C10.5359 30.5648 10.5359 30.3516 10.3984 30.1629C10.2781 29.9742 10.0547 29.8922 9.91719 29.9988Z" fill="white"/>
</svg>
