<svg width="35" height="35" viewBox="0 0 35 35" fill="none" xmlns="http://www.w3.org/2000/svg">
  <path d="M1.25 9.02344H33.75C34.4404 9.02344 35 8.53378 35 7.92969V5.19531C35 4.59122 34.4404 4.10156 33.75 4.10156H1.25C0.559609 4.10156 0 4.59122 0 5.19531V7.92969C0 8.53378 0.559609 9.02344 1.25 9.02344ZM1.25 19.9609H33.75C34.4404 19.9609 35 19.4713 35 18.8672V16.1328C35 15.5287 34.4404 15.0391 33.75 15.0391H1.25C0.559609 15.0391 0 15.5287 0 16.1328V18.8672C0 19.4713 0.559609 19.9609 1.25 19.9609ZM1.25 30.8984H33.75C34.4404 30.8984 35 30.4088 35 29.8047V27.0703C35 26.4662 34.4404 25.9766 33.75 25.9766H1.25C0.559609 25.9766 0 26.4662 0 27.0703V29.8047C0 30.4088 0.559609 30.8984 1.25 30.8984Z" fill="#00BE7A"/>
</svg>
